<svg width="270" height="46" viewBox="0 0 270 46" fill="none" xmlns="http://www.w3.org/2000/svg">
<path d="M25.9046 3.368C25.9366 3.592 25.9526 3.8 25.9526 3.992C25.9526 4.184 25.9526 4.376 25.9526 4.568V6.536L25.6646 31.448V31.928C25.6646 32.12 25.6166 32.408 25.5206 32.792C25.4886 32.952 25.4406 33.128 25.3766 33.32C25.3126 33.48 25.2486 33.656 25.1846 33.848C25.0246 34.232 24.8006 34.52 24.5126 34.712C24.2566 34.968 23.8406 35.144 23.2646 35.24C22.3686 35.432 21.5526 35.352 20.8166 35C20.4006 34.744 20.1126 34.424 19.9526 34.04C19.8886 33.976 19.8246 33.88 19.7606 33.752C19.7606 33.688 19.7286 33.592 19.6646 33.464C19.6006 33.304 19.5526 33.144 19.5206 32.984C19.4886 32.792 19.4566 32.6 19.4246 32.408C19.4246 32.248 19.4086 32.088 19.3766 31.928C19.3766 31.768 19.3606 31.608 19.3286 31.448C19.2646 31.288 19.2326 31.16 19.2326 31.064C19.2326 30.936 19.2326 30.792 19.2326 30.632C19.2966 30.504 19.3286 30.264 19.3286 29.912L19.3766 26.12L19.4246 20.072H16.8326L7.08863 20.12L6.99263 31.448V31.928C6.99263 32.12 6.94463 32.408 6.84863 32.792C6.81663 32.952 6.76863 33.128 6.70463 33.32C6.64063 33.48 6.57663 33.656 6.51263 33.848C6.35263 34.232 6.12863 34.52 5.84063 34.712C5.58463 34.968 5.16863 35.144 4.59263 35.24C3.69663 35.432 2.88063 35.352 2.14463 35C1.82463 34.808 1.52063 34.488 1.23263 34.04C1.16863 33.912 1.13663 33.816 1.13663 33.752L0.992625 33.464C0.928625 33.304 0.880625 33.144 0.848625 32.984C0.816625 32.792 0.784625 32.6 0.752625 32.408C0.752625 32.248 0.736625 32.088 0.704625 31.928C0.672625 31.768 0.640625 31.608 0.608625 31.448C0.576625 31.192 0.576625 30.92 0.608625 30.632V29.912L0.656625 26.12L0.752625 19.064C0.784625 18.04 0.800625 16.984 0.800625 15.896C0.800625 14.808 0.800625 13.688 0.800625 12.536C0.768625 11.384 0.752625 10.36 0.752625 9.464C0.784625 8.568 0.832625 7.56 0.896625 6.44V6.248C0.928625 5.928 0.944625 5.608 0.944625 5.288C0.944625 4.936 0.960625 4.584 0.992625 4.232C1.02463 3.912 1.07263 3.608 1.13663 3.32C1.23263 3 1.36063 2.68 1.52063 2.36C1.61663 2.104 1.74463 1.896 1.90463 1.736C2.06463 1.544 2.25663 1.368 2.48063 1.208C2.99263 0.951999 3.50463 0.823999 4.01663 0.823999C4.27263 0.823999 4.49663 0.839999 4.68863 0.871999C4.88063 0.871999 5.07263 0.887999 5.26463 0.919998C5.64863 0.951998 6.01663 1.144 6.36863 1.496C6.62463 1.72 6.80063 1.976 6.89663 2.264C7.05663 2.68 7.15263 3.048 7.18463 3.368C7.21663 3.592 7.23263 3.8 7.23263 3.992C7.23263 4.184 7.23263 4.376 7.23263 4.568V6.536L7.13663 14.456C7.39263 14.456 7.68063 14.456 8.00063 14.456C8.35263 14.456 8.75263 14.44 9.20063 14.408C10.8646 14.408 12.5126 14.424 14.1446 14.456C15.8086 14.488 17.5526 14.504 19.3766 14.504H19.4246C19.4246 13.064 19.4246 11.688 19.4246 10.376C19.4566 9.064 19.5046 7.688 19.5686 6.248C19.5686 5.928 19.5686 5.608 19.5686 5.288C19.6006 4.936 19.6326 4.584 19.6646 4.232C19.6966 3.912 19.7446 3.608 19.8086 3.32C19.9046 3 20.0326 2.68 20.1926 2.36C20.2566 2.104 20.3686 1.896 20.5286 1.736C20.7206 1.544 20.9446 1.368 21.2006 1.208C21.6486 0.951999 22.1446 0.823999 22.6886 0.823999C22.9446 0.823999 23.1686 0.839999 23.3606 0.871999C23.5846 0.871999 23.7766 0.887999 23.9366 0.919998C24.3846 0.983999 24.7526 1.176 25.0406 1.496C25.2966 1.656 25.4726 1.912 25.5686 2.264C25.6326 2.456 25.6806 2.648 25.7126 2.84C25.7766 3 25.8406 3.176 25.9046 3.368ZM49.5386 23.576C49.4746 24.632 49.4106 25.704 49.3466 26.792C49.2826 27.848 49.1066 28.872 48.8186 29.864C48.5626 30.856 48.1466 31.752 47.5706 32.552C47.0266 33.352 46.2426 33.992 45.2186 34.472C44.3226 34.92 43.3626 35.224 42.3386 35.384C41.3146 35.576 40.2906 35.656 39.2666 35.624C38.2426 35.592 37.2506 35.432 36.2906 35.144C35.3306 34.888 34.4666 34.52 33.6986 34.04C32.9306 33.56 32.3066 32.936 31.8266 32.168C31.3466 31.4 30.9626 30.568 30.6746 29.672C30.4186 28.776 30.2426 27.848 30.1466 26.888C30.0506 25.928 29.9866 25.032 29.9546 24.2C29.8266 21.992 29.8266 19.816 29.9546 17.672C29.9546 17.256 29.9546 16.792 29.9546 16.28C29.9546 15.736 29.9866 15.208 30.0506 14.696C30.1466 14.184 30.2906 13.72 30.4826 13.304C30.6746 12.856 30.9946 12.52 31.4426 12.296C32.4026 11.784 33.2826 11.752 34.0826 12.2C34.9146 12.648 35.4106 13.576 35.5706 14.984C35.6666 15.72 35.6986 16.536 35.6666 17.432C35.6666 18.328 35.6986 19.144 35.7626 19.88C35.7946 20.968 35.8266 22.152 35.8586 23.432C35.8906 24.68 36.0666 25.8 36.3866 26.792C36.7386 27.784 37.2986 28.536 38.0666 29.048C38.8666 29.528 40.0506 29.544 41.6186 29.096C42.3546 28.872 42.8346 28.312 43.0586 27.416C43.3146 26.52 43.4426 25.192 43.4426 23.432C43.4426 22.664 43.4266 21.816 43.3946 20.888C43.3626 19.96 43.3466 19.048 43.3466 18.152C43.3466 17.224 43.3626 16.376 43.3946 15.608C43.4586 14.808 43.5546 14.2 43.6826 13.784C43.8426 13.208 44.1786 12.776 44.6906 12.488C45.2026 12.2 45.7466 12.056 46.3226 12.056C46.8986 12.024 47.4426 12.136 47.9546 12.392C48.4666 12.648 48.8186 13.064 49.0106 13.64C49.2026 14.152 49.3306 14.808 49.3946 15.608C49.4906 16.376 49.5546 17.224 49.5866 18.152C49.6186 19.048 49.6186 19.976 49.5866 20.936C49.5866 21.864 49.5706 22.744 49.5386 23.576ZM54.5618 17.864C54.5618 17.128 54.5458 16.344 54.5138 15.512C54.5138 14.68 54.6578 13.928 54.9458 13.256C55.2018 12.648 55.6178 12.216 56.1938 11.96C56.8018 11.672 57.3938 11.608 57.9698 11.768C58.5458 11.864 58.9938 12.04 59.3138 12.296C59.6338 12.552 59.8578 12.856 59.9858 13.208C60.1458 13.528 60.2418 13.912 60.2738 14.36C60.3058 14.776 60.3378 15.192 60.3698 15.608C60.6898 15.032 61.0898 14.568 61.5698 14.216C62.0498 13.864 62.5458 13.576 63.0578 13.352C63.5698 13.128 64.0498 12.968 64.4978 12.872C64.9778 12.776 65.3458 12.728 65.6018 12.728C66.8178 12.728 68.0178 13 69.2018 13.544C70.4178 14.056 71.4258 14.792 72.2258 15.752C72.6738 16.328 73.0098 16.936 73.2338 17.576C73.4898 18.184 73.6658 18.824 73.7618 19.496C73.8898 20.168 73.9698 20.856 74.0018 21.56C74.0338 22.232 74.0658 22.92 74.0978 23.624C74.2578 25.672 74.2578 27.704 74.0978 29.72C74.0658 30.136 74.0498 30.616 74.0498 31.16C74.0498 31.704 74.0018 32.248 73.9058 32.792C73.8418 33.304 73.6978 33.768 73.4738 34.184C73.2818 34.568 72.9458 34.808 72.4658 34.904C71.7938 35.064 71.2338 35.096 70.7858 35C70.3698 34.936 70.0338 34.792 69.7778 34.568C69.5218 34.344 69.3298 34.056 69.2018 33.704C69.0738 33.352 68.9618 32.952 68.8658 32.504C68.8018 32.152 68.7378 31.752 68.6738 31.304C68.6418 30.824 68.6098 30.344 68.5778 29.864C68.5778 29.384 68.5618 28.92 68.5298 28.472C68.5298 27.992 68.5298 27.56 68.5298 27.176C68.5298 26.568 68.5138 25.896 68.4818 25.16C68.4498 24.424 68.4498 23.736 68.4818 23.096C68.4818 21.592 68.0818 20.456 67.2818 19.688C66.5138 18.888 65.4578 18.552 64.1138 18.68C63.0898 18.808 62.1938 19.224 61.4258 19.928C60.6578 20.6 60.2898 21.48 60.3218 22.568C60.3218 22.984 60.3218 23.368 60.3218 23.72C60.3218 24.072 60.3058 24.424 60.2738 24.776C60.2738 25.128 60.2738 25.512 60.2738 25.928C60.2738 26.344 60.2738 26.808 60.2738 27.32C60.2738 28.376 60.2738 29.496 60.2738 30.68C60.2738 31.832 60.1298 32.776 59.8418 33.512C59.5858 34.28 59.1538 34.808 58.5458 35.096C57.9378 35.384 57.2178 35.304 56.3858 34.856C56.0338 34.664 55.7458 34.408 55.5218 34.088C55.3298 33.736 55.1698 33.368 55.0418 32.984C54.9458 32.6 54.8818 32.216 54.8498 31.832C54.8178 31.416 54.7858 31.032 54.7538 30.68C54.6578 29.624 54.5938 28.648 54.5618 27.752C54.5618 26.824 54.5618 25.832 54.5618 24.776V17.864ZM98.0119 25.928C98.0119 26.952 97.9799 28.056 97.9159 29.24C97.8839 30.424 97.8359 31.528 97.7719 32.552C97.7719 33.512 97.7239 34.472 97.6279 35.432C97.5639 36.264 97.4359 37.16 97.2439 38.12C97.0519 39.112 96.7799 40.024 96.4279 40.856C95.9799 41.944 95.3719 42.872 94.6039 43.64C93.8359 44.44 92.8439 45.016 91.6279 45.368C90.6039 45.624 89.6439 45.784 88.7479 45.848C87.8519 45.944 86.8919 45.928 85.8679 45.8C85.1959 45.704 84.4759 45.512 83.7079 45.224C82.9399 44.968 82.2199 44.632 81.5479 44.216C80.8759 43.8 80.2839 43.304 79.7719 42.728C79.2599 42.184 78.9079 41.56 78.7159 40.856C78.4919 39.992 78.4759 39.24 78.6679 38.6C78.8919 37.96 79.2279 37.496 79.6759 37.208C80.1239 36.92 80.6519 36.872 81.2599 37.064C81.8679 37.256 82.4439 37.752 82.9879 38.552C83.3719 39.128 83.9319 39.592 84.6679 39.944C85.4039 40.296 86.1879 40.504 87.0199 40.568C87.8519 40.632 88.6519 40.52 89.4199 40.232C90.2199 39.976 90.8439 39.512 91.2919 38.84C91.6119 38.36 91.8359 37.672 91.9639 36.776C92.1239 35.88 92.2199 35 92.2519 34.136C90.6199 34.808 88.9399 35.064 87.2119 34.904C85.5159 34.712 83.9639 34.184 82.5559 33.32C81.1799 32.424 80.0599 31.24 79.1959 29.768C78.3639 28.264 78.0119 26.568 78.1399 24.68C78.2359 23.048 78.5719 21.512 79.1479 20.072C79.7559 18.632 80.7479 17.432 82.1239 16.472C83.2439 15.704 84.5079 15.208 85.9159 14.984C87.3239 14.728 88.6839 14.6 89.9959 14.6C90.7639 14.6 91.5159 14.6 92.2519 14.6C93.0199 14.6 93.7239 14.696 94.3639 14.888C95.0039 15.08 95.5799 15.4 96.0919 15.848C96.6039 16.296 96.9879 16.952 97.2439 17.816C97.6599 19.16 97.8839 20.488 97.9159 21.8C97.9799 23.112 98.0119 24.488 98.0119 25.928ZM88.7479 29.912C89.0679 29.912 89.3719 29.88 89.6599 29.816C89.9799 29.752 90.2839 29.672 90.5719 29.576C91.1159 29.384 91.5159 29.128 91.7719 28.808C92.0599 28.488 92.2519 28.136 92.3479 27.752C92.4439 27.336 92.4759 26.888 92.4439 26.408C92.4439 25.928 92.4439 25.432 92.4439 24.92C92.4439 24.504 92.4279 24.04 92.3959 23.528C92.3959 23.016 92.3639 22.536 92.2999 22.088C92.2359 21.608 92.1399 21.192 92.0119 20.84C91.8839 20.488 91.6919 20.264 91.4359 20.168C90.9879 20.04 90.4759 19.96 89.8999 19.928C89.3239 19.864 88.7479 19.864 88.1719 19.928C87.5959 19.96 87.0359 20.072 86.4919 20.264C85.9799 20.424 85.5479 20.648 85.1959 20.936C84.7159 21.352 84.3479 21.864 84.0919 22.472C83.8359 23.08 83.6759 23.72 83.6119 24.392C83.5799 25.064 83.6279 25.72 83.7559 26.36C83.9159 27 84.1879 27.576 84.5719 28.088C85.0199 28.728 85.6279 29.192 86.3959 29.48C87.1639 29.768 87.9479 29.912 88.7479 29.912ZM101.952 18.008C101.952 17.624 101.952 17.192 101.952 16.712C101.952 16.2 101.968 15.688 102 15.176C102.032 14.632 102.08 14.12 102.144 13.64C102.24 13.128 102.368 12.68 102.528 12.296C102.784 11.72 103.184 11.336 103.728 11.144C104.272 10.92 104.864 10.824 105.504 10.856C106.176 10.856 106.704 10.968 107.088 11.192C107.472 11.416 107.76 11.72 107.952 12.104C108.144 12.456 108.256 12.872 108.288 13.352C108.352 13.8 108.384 14.28 108.384 14.792C108.672 14.28 109.056 13.864 109.536 13.544C110.048 13.224 110.56 12.968 111.072 12.776C111.584 12.584 112.048 12.456 112.464 12.392C112.88 12.296 113.12 12.248 113.184 12.248C113.984 12.184 114.704 12.168 115.344 12.2C116.016 12.232 116.752 12.376 117.552 12.632C118.064 12.824 118.592 13.096 119.136 13.448C119.68 13.768 120.16 14.152 120.576 14.6C120.992 15.048 121.264 15.544 121.392 16.088C121.552 16.6 121.488 17.144 121.2 17.72C120.752 18.52 120.256 18.92 119.712 18.92C119.168 18.888 118.576 18.792 117.936 18.632C117.584 18.568 117.168 18.424 116.688 18.2C116.208 17.976 115.792 17.832 115.44 17.768C114.352 17.608 113.392 17.688 112.56 18.008C111.728 18.328 111.008 18.712 110.4 19.16C109.696 19.704 109.088 20.328 108.576 21.032V27.944C108.576 28.808 108.56 29.704 108.528 30.632C108.528 31.56 108.4 32.408 108.144 33.176C107.92 33.912 107.52 34.52 106.944 35C106.4 35.448 105.6 35.64 104.544 35.576C103.968 35.544 103.456 35.272 103.008 34.76C102.56 34.216 102.288 33.688 102.192 33.176C102.128 32.696 102.08 32.12 102.048 31.448C102.016 30.776 101.984 30.072 101.952 29.336C101.952 28.6 101.952 27.864 101.952 27.128C101.952 26.36 101.952 25.656 101.952 25.016V18.008ZM145.311 13.592C145.599 14.04 145.727 14.52 145.695 15.032C145.695 15.768 145.567 16.408 145.311 16.952C145.247 17.112 145.151 17.32 145.023 17.576C144.927 17.832 144.815 18.104 144.687 18.392C144.591 18.68 144.479 18.952 144.351 19.208C144.223 19.464 144.127 19.656 144.063 19.784L143.967 20.024C143.519 21.016 143.087 21.976 142.671 22.904C142.255 23.832 141.791 24.824 141.279 25.88C140.767 26.904 140.271 27.912 139.791 28.904C139.343 29.864 138.895 30.808 138.447 31.736C138.319 31.992 138.207 32.248 138.111 32.504C138.015 32.728 137.887 32.968 137.727 33.224L135.423 38.168C135.007 39 134.607 39.816 134.223 40.616C133.871 41.416 133.471 42.216 133.023 43.016C132.927 43.176 132.831 43.32 132.735 43.448C132.671 43.608 132.607 43.768 132.543 43.928C132.319 44.312 131.983 44.68 131.535 45.032C131.119 45.416 130.671 45.624 130.191 45.656C129.327 45.72 128.575 45.464 127.935 44.888C127.551 44.664 127.247 44.344 127.023 43.928C126.895 43.64 126.831 43.272 126.831 42.824C126.863 42.632 126.879 42.44 126.879 42.248C126.911 42.088 126.943 41.928 126.975 41.768C127.039 41.608 127.087 41.448 127.119 41.288C127.151 41.128 127.199 41 127.263 40.904C127.359 40.648 127.439 40.52 127.503 40.52L131.007 32.936C130.847 32.584 130.687 32.232 130.527 31.88C130.367 31.496 130.223 31.16 130.095 30.872C129.679 29.88 129.231 28.84 128.751 27.752C128.303 26.632 127.839 25.528 127.359 24.44C126.879 23.32 126.383 22.232 125.871 21.176C125.359 20.12 124.847 19.112 124.335 18.152C124.143 17.832 123.967 17.496 123.807 17.144C123.647 16.76 123.519 16.392 123.423 16.04C123.327 15.656 123.295 15.272 123.327 14.888C123.359 14.504 123.503 14.12 123.759 13.736C124.015 13.256 124.351 12.92 124.767 12.728C125.183 12.504 125.615 12.408 126.063 12.44C126.543 12.44 126.991 12.536 127.407 12.728C127.823 12.92 128.159 13.176 128.415 13.496C128.959 14.072 129.391 14.712 129.711 15.416C130.031 16.12 130.335 16.84 130.623 17.576C131.231 18.856 131.855 20.2 132.495 21.608C133.135 23.016 133.775 24.392 134.415 25.736L136.911 20.456C137.167 19.944 137.391 19.448 137.583 18.968C137.807 18.488 138.031 18.024 138.255 17.576C138.511 17.032 138.751 16.472 138.975 15.896C139.231 15.32 139.519 14.792 139.839 14.312C139.903 14.184 139.967 14.072 140.031 13.976C140.095 13.88 140.159 13.768 140.223 13.64C140.511 13.256 140.767 12.952 140.991 12.728C141.151 12.6 141.279 12.504 141.375 12.44C141.503 12.344 141.647 12.28 141.807 12.248C142.031 12.184 142.239 12.152 142.431 12.152C142.655 12.12 142.863 12.12 143.055 12.152C143.375 12.248 143.759 12.392 144.207 12.584C144.687 12.776 145.055 13.112 145.311 13.592ZM180.957 17.288C181.885 17.896 182.669 18.616 183.309 19.448C183.981 20.248 184.509 21.24 184.893 22.424C185.309 23.736 185.517 25.064 185.517 26.408C185.549 27.72 185.309 28.952 184.797 30.104C184.317 31.224 183.533 32.216 182.445 33.08C181.389 33.912 179.997 34.504 178.269 34.856C177.341 35.08 176.253 35.256 175.005 35.384C173.757 35.512 172.637 35.576 171.645 35.576C170.397 35.608 169.101 35.608 167.757 35.576C166.445 35.576 165.165 35.448 163.917 35.192C163.373 35.032 162.973 34.76 162.717 34.376C162.493 33.96 162.333 33.496 162.237 32.984C162.109 32.696 162.045 32.408 162.045 32.12V4.856C162.045 3.96 162.221 3.272 162.573 2.792C162.957 2.28 163.453 1.912 164.061 1.688C164.669 1.432 165.357 1.288 166.125 1.256C166.893 1.192 167.693 1.16 168.525 1.16C169.165 1.16 169.805 1.16 170.445 1.16C171.117 1.128 171.789 1.128 172.461 1.16C173.517 1.192 174.605 1.288 175.725 1.448C176.877 1.576 177.965 1.832 178.989 2.216C179.469 2.376 179.981 2.6 180.525 2.888C181.069 3.144 181.501 3.464 181.821 3.848C182.845 4.776 183.597 5.864 184.077 7.112C184.589 8.328 184.813 9.576 184.749 10.856C184.685 12.104 184.333 13.304 183.693 14.456C183.085 15.608 182.173 16.552 180.957 17.288ZM172.557 30.008C173.549 29.944 174.557 29.832 175.581 29.672C176.605 29.512 177.309 29.208 177.693 28.76C178.109 28.248 178.397 27.656 178.557 26.984C178.749 26.28 178.797 25.576 178.701 24.872C178.637 24.136 178.429 23.448 178.077 22.808C177.757 22.136 177.325 21.608 176.781 21.224C176.045 20.648 175.197 20.28 174.237 20.12C173.277 19.928 172.333 19.832 171.405 19.832C170.957 19.832 170.541 19.848 170.157 19.88C169.805 19.88 169.485 19.928 169.197 20.024C168.941 20.088 168.749 20.232 168.621 20.456C168.493 20.68 168.429 21.016 168.429 21.464C168.493 22.296 168.493 23.128 168.429 23.96C168.365 24.792 168.333 25.592 168.333 26.36C168.333 26.808 168.317 27.304 168.285 27.848C168.285 28.36 168.461 28.792 168.813 29.144C169.165 29.496 169.677 29.736 170.349 29.864C171.021 29.992 171.757 30.04 172.557 30.008ZM173.517 6.968C172.525 6.936 171.693 6.92 171.021 6.92C170.381 6.888 169.869 6.936 169.485 7.064C169.133 7.16 168.877 7.4 168.717 7.784C168.589 8.136 168.541 8.68 168.573 9.416C168.573 10.024 168.557 10.632 168.525 11.24C168.525 11.816 168.525 12.392 168.525 12.968C168.525 13.608 168.733 14.088 169.149 14.408C169.565 14.696 170.077 14.872 170.685 14.936C171.325 15 171.981 15 172.653 14.936C173.357 14.872 173.965 14.792 174.477 14.696C175.629 14.504 176.509 14.12 177.117 13.544C177.757 12.936 178.125 12.056 178.221 10.904C178.349 9.464 177.965 8.472 177.069 7.928C176.205 7.352 175.021 7.032 173.517 6.968ZM205.372 28.424C205.756 28.328 206.14 28.264 206.524 28.232C206.94 28.2 207.308 28.248 207.628 28.376C207.98 28.504 208.268 28.728 208.492 29.048C208.716 29.336 208.828 29.752 208.828 30.296C208.828 30.68 208.732 31.048 208.54 31.4C208.348 31.752 208.108 32.072 207.82 32.36C207.532 32.648 207.212 32.904 206.86 33.128C206.508 33.32 206.172 33.48 205.852 33.608C204.924 34.024 203.852 34.344 202.636 34.568C201.452 34.792 200.22 34.872 198.94 34.808C197.212 34.744 195.548 34.408 193.948 33.8C192.38 33.16 191.148 32.12 190.252 30.68C189.42 29.272 188.924 27.704 188.764 25.976C188.604 24.248 188.684 22.616 189.004 21.08C189.356 19.224 189.948 17.72 190.78 16.568C191.644 15.384 192.668 14.44 193.852 13.736C195.292 12.904 196.908 12.472 198.7 12.44C200.492 12.408 202.204 12.76 203.836 13.496C204.924 13.976 205.9 14.632 206.764 15.464C207.628 16.264 208.284 17.24 208.732 18.392C208.86 18.68 208.956 19.032 209.02 19.448C209.116 19.864 209.18 20.312 209.212 20.792C209.244 21.24 209.244 21.688 209.212 22.136C209.18 22.584 209.1 22.984 208.972 23.336C208.78 23.912 208.54 24.36 208.252 24.68C207.964 25 207.596 25.24 207.148 25.4C206.7 25.56 206.156 25.672 205.516 25.736C204.908 25.768 204.172 25.8 203.308 25.832C202.54 25.864 201.82 25.88 201.148 25.88C200.476 25.88 199.788 25.88 199.084 25.88C198.38 25.848 197.644 25.832 196.876 25.832C196.14 25.8 195.308 25.768 194.38 25.736C194.284 26.376 194.364 26.936 194.62 27.416C194.908 27.864 195.292 28.248 195.772 28.568C196.252 28.856 196.796 29.08 197.404 29.24C198.012 29.4 198.604 29.496 199.18 29.528C200.268 29.592 201.308 29.512 202.3 29.288C203.292 29.032 204.316 28.744 205.372 28.424ZM203.308 19.112C202.7 18.408 202.06 17.896 201.388 17.576C200.876 17.352 200.332 17.256 199.756 17.288C199.212 17.288 198.684 17.368 198.172 17.528C197.244 17.752 196.46 18.232 195.82 18.968C195.756 19.032 195.644 19.192 195.484 19.448C195.324 19.672 195.164 19.912 195.004 20.168C194.876 20.424 194.78 20.664 194.716 20.888C194.652 21.112 194.684 21.224 194.812 21.224H204.22C204.188 20.776 204.108 20.408 203.98 20.12C203.852 19.8 203.628 19.464 203.308 19.112ZM218.239 14.792C219.199 14.312 220.207 13.976 221.263 13.784C222.319 13.56 223.359 13.512 224.383 13.64C225.439 13.736 226.447 14.008 227.407 14.456C228.367 14.872 229.263 15.48 230.095 16.28C230.927 17.112 231.567 18.024 232.015 19.016C232.463 20.008 232.783 21.112 232.975 22.328C233.103 23.16 233.311 23.928 233.599 24.632C233.887 25.336 234.191 26.04 234.511 26.744C234.863 27.448 235.183 28.152 235.471 28.856C235.791 29.56 236.047 30.296 236.239 31.064C236.399 31.8 236.335 32.52 236.047 33.224C235.791 33.896 235.247 34.312 234.415 34.472C233.935 34.568 233.471 34.536 233.023 34.376C232.607 34.184 232.223 33.928 231.871 33.608C231.519 33.256 231.199 32.888 230.911 32.504C230.655 32.088 230.415 31.704 230.191 31.352C229.455 32.312 228.655 33.064 227.791 33.608C226.927 34.12 225.887 34.456 224.671 34.616C223.647 34.744 222.671 34.776 221.743 34.712C220.815 34.648 219.823 34.472 218.767 34.184C217.391 33.832 216.255 33.224 215.359 32.36C214.495 31.464 213.823 30.44 213.343 29.288C212.895 28.104 212.655 26.84 212.623 25.496C212.591 24.152 212.751 22.824 213.103 21.512C213.551 19.784 214.223 18.376 215.119 17.288C216.015 16.2 217.055 15.368 218.239 14.792ZM219.439 20.408C218.991 20.856 218.639 21.384 218.383 21.992C218.127 22.6 217.967 23.24 217.903 23.912C217.871 24.584 217.935 25.256 218.095 25.928C218.255 26.6 218.511 27.192 218.863 27.704C219.183 28.152 219.727 28.536 220.495 28.856C221.263 29.144 222.063 29.32 222.895 29.384C223.855 29.448 224.687 29.192 225.391 28.616C226.127 28.04 226.671 27.32 227.023 26.456C227.407 25.56 227.583 24.616 227.551 23.624C227.519 22.6 227.247 21.672 226.735 20.84C226.351 20.232 225.839 19.784 225.199 19.496C224.591 19.208 223.935 19.064 223.231 19.064C222.527 19.032 221.823 19.144 221.119 19.4C220.447 19.624 219.887 19.96 219.439 20.408ZM240.281 18.008C240.281 17.624 240.281 17.192 240.281 16.712C240.281 16.2 240.297 15.688 240.329 15.176C240.361 14.632 240.409 14.12 240.473 13.64C240.569 13.128 240.697 12.68 240.857 12.296C241.113 11.72 241.513 11.336 242.057 11.144C242.601 10.92 243.193 10.824 243.833 10.856C244.505 10.856 245.033 10.968 245.417 11.192C245.801 11.416 246.089 11.72 246.281 12.104C246.473 12.456 246.585 12.872 246.617 13.352C246.681 13.8 246.713 14.28 246.713 14.792C247.001 14.28 247.385 13.864 247.865 13.544C248.377 13.224 248.889 12.968 249.401 12.776C249.913 12.584 250.377 12.456 250.793 12.392C251.209 12.296 251.449 12.248 251.513 12.248C252.313 12.184 253.033 12.168 253.673 12.2C254.345 12.232 255.081 12.376 255.881 12.632C256.393 12.824 256.921 13.096 257.465 13.448C258.009 13.768 258.489 14.152 258.905 14.6C259.321 15.048 259.593 15.544 259.721 16.088C259.881 16.6 259.817 17.144 259.529 17.72C259.081 18.52 258.585 18.92 258.041 18.92C257.497 18.888 256.905 18.792 256.265 18.632C255.913 18.568 255.497 18.424 255.017 18.2C254.537 17.976 254.121 17.832 253.769 17.768C252.681 17.608 251.721 17.688 250.889 18.008C250.057 18.328 249.337 18.712 248.729 19.16C248.025 19.704 247.417 20.328 246.905 21.032V27.944C246.905 28.808 246.889 29.704 246.857 30.632C246.857 31.56 246.729 32.408 246.473 33.176C246.249 33.912 245.849 34.52 245.273 35C244.729 35.448 243.929 35.64 242.873 35.576C242.297 35.544 241.785 35.272 241.337 34.76C240.889 34.216 240.617 33.688 240.521 33.176C240.457 32.696 240.409 32.12 240.377 31.448C240.345 30.776 240.313 30.072 240.281 29.336C240.281 28.6 240.281 27.864 240.281 27.128C240.281 26.36 240.281 25.656 240.281 25.016V18.008ZM269.574 35C269.574 35.832 269.27 36.536 268.662 37.112C268.086 37.72 267.382 38.024 266.55 38.024C265.718 38.024 264.998 37.72 264.39 37.112C263.814 36.536 263.526 35.832 263.526 35C263.526 34.168 263.814 33.448 264.39 32.84C264.998 32.232 265.718 31.928 266.55 31.928C267.382 31.928 268.086 32.232 268.662 32.84C269.27 33.448 269.574 34.168 269.574 35Z" fill="white"/>
</svg>
